<svg id="visual" viewBox="0 0 960 35" width="960" height="35" xmlns="http://www.w3.org/2000/svg" xmlns:xlink="http://www.w3.org/1999/xlink" version="1.1"><rect x="0" y="0" width="960" height="35" fill="#002233"></rect><path d="M0 27L12.3 27.5C24.7 28 49.3 29 74 29C98.7 29 123.3 28 148 27.7C172.7 27.3 197.3 27.7 221.8 28C246.3 28.3 270.7 28.7 295.2 29.2C319.7 29.7 344.3 30.3 369 30C393.7 29.7 418.3 28.3 443 27.5C467.7 26.7 492.3 26.3 517 27.2C541.7 28 566.3 30 591 30.5C615.7 31 640.3 30 664.8 29.7C689.3 29.3 713.7 29.7 738.2 29.3C762.7 29 787.3 28 812 27.3C836.7 26.7 861.3 26.3 886 27.3C910.7 28.3 935.3 30.7 947.7 31.8L960 33L960 36L947.7 36C935.3 36 910.7 36 886 36C861.3 36 836.7 36 812 36C787.3 36 762.7 36 738.2 36C713.7 36 689.3 36 664.8 36C640.3 36 615.7 36 591 36C566.3 36 541.7 36 517 36C492.3 36 467.7 36 443 36C418.3 36 393.7 36 369 36C344.3 36 319.7 36 295.2 36C270.7 36 246.3 36 221.8 36C197.3 36 172.7 36 148 36C123.3 36 98.7 36 74 36C49.3 36 24.7 36 12.3 36L0 36Z" fill="#ffffff" stroke-linecap="round" stroke-linejoin="miter"></path></svg>